<svg xmlns="http://www.w3.org/2000/svg" width="1800" height="1200" viewBox="0 0 1800 1200">
<rect width="1800" height="1200" fill="#ece1c8"/>
<path d="M0 82H1800M0 1120H1800" stroke="#223b3d" stroke-width="7"/>
<text x="70" y="58" fill="#223b3d" font-family="Georgia,serif" font-size="34" font-weight="700">庞氏骗局 · 桌游组件建模蓝图</text>
<text x="70" y="110" fill="#76674f" font-family="sans-serif" font-size="16">比例示意，不复刻任何商业版插画；数字与交互关系对应服务端数据模型</text>
<g transform="translate(70 155)">
  <text x="0" y="0" fill="#223b3d" font-family="sans-serif" font-size="19" font-weight="700">A · 三排资金市场</text>
  <rect x="0" y="24" width="720" height="390" rx="8" fill="#d5c49e" stroke="#665434" stroke-width="5"/>
  <g fill="#f4eddd" stroke="#665434" stroke-width="2"><rect x="110" y="50" width="155" height="96" rx="5"/><rect x="300" y="50" width="155" height="96" rx="5"/><rect x="490" y="50" width="155" height="96" rx="5"/><rect x="110" y="166" width="155" height="96" rx="5"/><rect x="300" y="166" width="155" height="96" rx="5"/><rect x="490" y="166" width="155" height="96" rx="5"/><rect x="110" y="282" width="155" height="96" rx="5"/><rect x="300" y="282" width="155" height="96" rx="5"/><rect x="490" y="282" width="155" height="96" rx="5"/></g>
  <g fill="#293a3a" font-family="sans-serif" font-size="14"><text x="22" y="108">第 1 排</text><text x="22" y="224">第 2 排</text><text x="22" y="340">第 3 排</text></g>
  <path d="M670 55l24 42h-48z" fill="#8f3d36"/><text x="670" y="118" text-anchor="middle" fill="#8f3d36" font-family="sans-serif" font-size="12">熊市阈值 = 玩家数</text>
</g>
<g transform="translate(875 155)">
  <text x="0" y="0" fill="#223b3d" font-family="sans-serif" font-size="19" font-weight="700">B · 时间轮与循环贷款</text>
  <circle cx="230" cy="220" r="175" fill="#c9b580" stroke="#755c32" stroke-width="12"/>
  <circle cx="230" cy="220" r="70" fill="#263b3d" stroke="#ae8a4b" stroke-width="5"/>
  <circle cx="230" cy="78" r="34" fill="#f0e4c6" stroke="#755c32" stroke-width="2"/><text x="230" y="84" text-anchor="middle" fill="#2c312c" font-family="Georgia,serif" font-size="22" font-weight="700">1</text><circle cx="365" cy="176" r="34" fill="#f0e4c6" stroke="#755c32" stroke-width="2"/><text x="365" y="182" text-anchor="middle" fill="#2c312c" font-family="Georgia,serif" font-size="22" font-weight="700">2</text><circle cx="314" cy="335" r="34" fill="#f0e4c6" stroke="#755c32" stroke-width="2"/><text x="314" y="341" text-anchor="middle" fill="#2c312c" font-family="Georgia,serif" font-size="22" font-weight="700">3</text><circle cx="146" cy="335" r="34" fill="#f0e4c6" stroke="#755c32" stroke-width="2"/><text x="146" y="341" text-anchor="middle" fill="#2c312c" font-family="Georgia,serif" font-size="22" font-weight="700">4</text><circle cx="95" cy="176" r="34" fill="#f0e4c6" stroke="#755c32" stroke-width="2"/><text x="95" y="182" text-anchor="middle" fill="#2c312c" font-family="Georgia,serif" font-size="22" font-weight="700">5</text>
  <path d="M18 200l45-20v40z" fill="#963e36"/><text x="18" y="244" fill="#963e36" font-family="sans-serif" font-size="13">到期箭头</text>
  <text x="230" y="210" text-anchor="middle" fill="#e7d7b4" font-family="sans-serif" font-size="13">每轮 +1</text><text x="230" y="235" text-anchor="middle" fill="#e7d7b4" font-family="sans-serif" font-size="13">崩盘 +2</text>
</g>
<g transform="translate(70 625)">
  <text x="0" y="0" fill="#223b3d" font-family="sans-serif" font-size="19" font-weight="700">C · 产业、现金与奢侈品</text>
  <g transform="translate(0 35)"><rect width="120" height="120" rx="12" fill="#6d91aa" stroke="#384443" stroke-width="3"/><circle cx="60" cy="46" r="24" fill="#f2e8d2" opacity=".8"/><text x="60" y="96" text-anchor="middle" fill="#fff8e8" font-family="sans-serif" font-size="15" font-weight="700">交通</text><text x="60" y="145" text-anchor="middle" fill="#4b4335" font-family="sans-serif" font-size="12">15 枚</text></g><g transform="translate(150 35)"><rect width="120" height="120" rx="12" fill="#c5a15a" stroke="#384443" stroke-width="3"/><circle cx="60" cy="46" r="24" fill="#f2e8d2" opacity=".8"/><text x="60" y="96" text-anchor="middle" fill="#fff8e8" font-family="sans-serif" font-size="15" font-weight="700">粮食</text><text x="60" y="145" text-anchor="middle" fill="#4b4335" font-family="sans-serif" font-size="12">15 枚</text></g><g transform="translate(300 35)"><rect width="120" height="120" rx="12" fill="#8d9b72" stroke="#384443" stroke-width="3"/><circle cx="60" cy="46" r="24" fill="#f2e8d2" opacity=".8"/><text x="60" y="96" text-anchor="middle" fill="#fff8e8" font-family="sans-serif" font-size="15" font-weight="700">媒体</text><text x="60" y="145" text-anchor="middle" fill="#4b4335" font-family="sans-serif" font-size="12">15 枚</text></g><g transform="translate(450 35)"><rect width="120" height="120" rx="12" fill="#9a6574" stroke="#384443" stroke-width="3"/><circle cx="60" cy="46" r="24" fill="#f2e8d2" opacity=".8"/><text x="60" y="96" text-anchor="middle" fill="#fff8e8" font-family="sans-serif" font-size="15" font-weight="700">地产</text><text x="60" y="145" text-anchor="middle" fill="#4b4335" font-family="sans-serif" font-size="12">15 枚</text></g>
  <g transform="translate(0 225)"><g transform="translate(0 0)"><rect width="120" height="58" rx="4" fill="#9bbd91" stroke="#5c543f" stroke-width="2"/><text x="60" y="39" text-anchor="middle" fill="#263332" font-family="Georgia,serif" font-size="28" font-weight="700">1</text></g><g transform="translate(145 0)"><rect width="120" height="58" rx="4" fill="#d0a45c" stroke="#5c543f" stroke-width="2"/><text x="60" y="39" text-anchor="middle" fill="#263332" font-family="Georgia,serif" font-size="28" font-weight="700">5</text></g><g transform="translate(290 0)"><rect width="120" height="58" rx="4" fill="#b76765" stroke="#5c543f" stroke-width="2"/><text x="60" y="39" text-anchor="middle" fill="#263332" font-family="Georgia,serif" font-size="28" font-weight="700">10</text></g><g transform="translate(435 0)"><rect width="120" height="58" rx="4" fill="#6086a6" stroke="#5c543f" stroke-width="2"/><text x="60" y="39" text-anchor="middle" fill="#263332" font-family="Georgia,serif" font-size="28" font-weight="700">20</text></g><text x="0" y="92" fill="#6d6049" font-family="sans-serif" font-size="13">数字银行无限供应；面额 1 / 5 / 10 / 20</text></g>
  <g transform="translate(640 35)"><g transform="translate(0 0)"><path d="M10 20h130l-12 100H22z" fill="#253c3e" stroke="#b28b49" stroke-width="4"/><circle cx="75" cy="65" r="25" fill="none" stroke="#d1ad63" stroke-width="6"/><text x="75" y="150" text-anchor="middle" fill="#3d3a31" font-family="sans-serif" font-size="13">典藏腕表</text><text x="75" y="170" text-anchor="middle" fill="#7c5831" font-family="sans-serif" font-size="12">30 / 1 分</text></g><g transform="translate(165 0)"><path d="M10 20h130l-12 100H22z" fill="#253c3e" stroke="#b28b49" stroke-width="4"/><circle cx="75" cy="65" r="25" fill="none" stroke="#d1ad63" stroke-width="6"/><text x="75" y="150" text-anchor="middle" fill="#3d3a31" font-family="sans-serif" font-size="13">古董跑车</text><text x="75" y="170" text-anchor="middle" fill="#7c5831" font-family="sans-serif" font-size="12">56 / 2 分</text></g><g transform="translate(330 0)"><path d="M10 20h130l-12 100H22z" fill="#253c3e" stroke="#b28b49" stroke-width="4"/><circle cx="75" cy="65" r="25" fill="none" stroke="#d1ad63" stroke-width="6"/><text x="75" y="150" text-anchor="middle" fill="#3d3a31" font-family="sans-serif" font-size="13">私人游艇</text><text x="75" y="170" text-anchor="middle" fill="#7c5831" font-family="sans-serif" font-size="12">78 / 3 分</text></g><g transform="translate(495 0)"><path d="M10 20h130l-12 100H22z" fill="#253c3e" stroke="#b28b49" stroke-width="4"/><circle cx="75" cy="65" r="25" fill="none" stroke="#d1ad63" stroke-width="6"/><text x="75" y="150" text-anchor="middle" fill="#3d3a31" font-family="sans-serif" font-size="13">城市会所</text><text x="75" y="170" text-anchor="middle" fill="#7c5831" font-family="sans-serif" font-size="12">96 / 4 分</text></g></g>
</g>
<g transform="translate(70 1025)">
  <text x="0" y="0" fill="#223b3d" font-family="sans-serif" font-size="19" font-weight="700">D · 暗盘交易状态机</text>
  <g transform="translate(270 -38)"><path d="M0 0h210v92H0z" fill="#cfb984" stroke="#765e35" stroke-width="3"/><path d="M0 0l105 56L210 0" fill="#bca574" stroke="#765e35" stroke-width="2"/></g>
  <text x="245" y="80" text-anchor="middle" fill="#343830" font-family="sans-serif" font-size="14">发起人：装入任意现金</text><path d="M500 40h120" stroke="#7d5e33" stroke-width="4" marker-end="url(#a)"/>
  <text x="795" y="20" text-anchor="middle" fill="#343830" font-family="sans-serif" font-size="14">目标玩家必须二选一</text>
  <rect x="650" y="36" width="290" height="58" rx="5" fill="#6b927c"/><text x="795" y="71" text-anchor="middle" fill="white" font-family="sans-serif" font-size="15">收钱 → 卖出 1 枚产业</text>
  <rect x="980" y="36" width="350" height="58" rx="5" fill="#8c5c55"/><text x="1155" y="71" text-anchor="middle" fill="white" font-family="sans-serif" font-size="15">补入等额 → 反向买入 1 枚</text>
  <text x="1450" y="69" fill="#6d6049" font-family="sans-serif" font-size="13">价格仅双方可见</text>
</g>
<defs><marker id="a" viewBox="0 0 10 10" refX="9" refY="5" markerWidth="7" markerHeight="7" orient="auto-start-reverse"><path d="M0 0l10 5-10 5z" fill="#7d5e33"/></marker></defs>
</svg>