<svg xmlns="http://www.w3.org/2000/svg" width="512" height="512" viewBox="0 0 512 512" role="img" aria-labelledby="title desc" data-model-version="1.0.0">
  <title id="title">兰影兰花牌正面</title>
  <desc id="desc">玩家四兰影套牌。翻开后表示安全的花牌正面。原创中性占位设计，不含官方美术。</desc>
  <defs>
    <radialGradient id="orchid-flower-surface" cx="35%" cy="26%" r="76%">
      <stop offset="0" stop-color="#51435B"/>
      <stop offset="0.68" stop-color="#312936"/>
      <stop offset="1" stop-color="#1E1922"/>
    </radialGradient>
    <linearGradient id="orchid-flower-edge" x1="0" y1="0" x2="1" y2="1">
      <stop offset="0" stop-color="#BAA7C0"/>
      <stop offset="0.48" stop-color="#9275A0"/>
      <stop offset="1" stop-color="#1E1922"/>
    </linearGradient>
    <filter id="orchid-flower-shadow" x="-20%" y="-20%" width="140%" height="150%">
      <feDropShadow dx="0" dy="12" stdDeviation="10" flood-color="#000000" flood-opacity="0.42"/>
    </filter>
    <filter id="orchid-flower-soft" x="-30%" y="-30%" width="160%" height="160%">
      <feGaussianBlur stdDeviation="9"/>
    </filter>
    <clipPath id="orchid-flower-clip"><circle cx="256" cy="256" r="208"/></clipPath>
  </defs>
  <g id="orchid-flower-disc" data-player="player-4" data-face="flower">
      <circle cx="256" cy="267" r="224" fill="#000000" opacity="0.28" filter="url(#orchid-flower-soft)"/>
      <circle cx="256" cy="256" r="232" fill="url(#orchid-flower-edge)" filter="url(#orchid-flower-shadow)"/>
      <circle cx="256" cy="256" r="216" fill="url(#orchid-flower-surface)" stroke="#BAA7C0" stroke-width="4"/>
      <circle cx="256" cy="256" r="202" fill="none" stroke="#7DA486" stroke-width="3" opacity="0.7"/>
      <circle cx="256" cy="256" r="183" fill="none" stroke="#7DA486" stroke-width="7" stroke-dasharray="5 9"/>
<ellipse cx="256" cy="199.52" rx="37" ry="66" transform="rotate(45 256 256)" fill="#F4EDF5" stroke="#9275A0" stroke-width="5" opacity="0.96"/>
<ellipse cx="256" cy="211.4" rx="28.86" ry="54.12" transform="rotate(135 256 256)" fill="#C6A0CB" stroke="#9275A0" stroke-width="5" opacity="0.96"/>
<ellipse cx="256" cy="199.52" rx="37" ry="66" transform="rotate(225 256 256)" fill="#F4EDF5" stroke="#9275A0" stroke-width="5" opacity="0.96"/>
<ellipse cx="256" cy="211.4" rx="28.86" ry="54.12" transform="rotate(315 256 256)" fill="#C6A0CB" stroke="#9275A0" stroke-width="5" opacity="0.96"/>
<ellipse cx="256" cy="226.5" rx="17.76" ry="36.3" transform="rotate(75 256 256)" fill="#C6A0CB" stroke="#BAA7C0" stroke-width="3" opacity="0.82"/>
<ellipse cx="256" cy="226.5" rx="17.76" ry="36.3" transform="rotate(135 256 256)" fill="#C6A0CB" stroke="#BAA7C0" stroke-width="3" opacity="0.82"/>
<ellipse cx="256" cy="226.5" rx="17.76" ry="36.3" transform="rotate(195 256 256)" fill="#C6A0CB" stroke="#BAA7C0" stroke-width="3" opacity="0.82"/>
<ellipse cx="256" cy="226.5" rx="17.76" ry="36.3" transform="rotate(255 256 256)" fill="#C6A0CB" stroke="#BAA7C0" stroke-width="3" opacity="0.82"/>
<ellipse cx="256" cy="226.5" rx="17.76" ry="36.3" transform="rotate(315 256 256)" fill="#C6A0CB" stroke="#BAA7C0" stroke-width="3" opacity="0.82"/>
<ellipse cx="256" cy="226.5" rx="17.76" ry="36.3" transform="rotate(375 256 256)" fill="#C6A0CB" stroke="#BAA7C0" stroke-width="3" opacity="0.82"/>
<path d="M226 270 Q256 318 286 270 Q278 330 256 347 Q234 330 226 270Z" fill="#9275A0" stroke="#BAA7C0" stroke-width="4"/>
<circle cx="256" cy="256" r="44" fill="#9275A0" stroke="#BAA7C0" stroke-width="6"/>
<circle cx="256" cy="256" r="17.68" fill="#1E1922"/>
<circle cx="247" cy="247" r="5" fill="#F4EDF5" opacity="0.72"/>
      <path d="M319.42 435.1L325.1 451.13" stroke="#9275A0" stroke-width="7" stroke-linecap="round"/>
<path d="M277.51 444.78L279.43 461.67" stroke="#9275A0" stroke-width="7" stroke-linecap="round"/>
<path d="M234.49 444.78L232.57 461.67" stroke="#9275A0" stroke-width="7" stroke-linecap="round"/>
<path d="M192.58 435.1L186.9 451.13" stroke="#9275A0" stroke-width="7" stroke-linecap="round"/>
      <path d="M126 154A166 166 0 0 1 235 92" fill="none" stroke="#F4EDF5" stroke-width="8" stroke-linecap="round" opacity="0.16"/>
    </g>
</svg>
