<?xml version="1.0" encoding="UTF-8"?>
<svg xmlns="http://www.w3.org/2000/svg" width="1600" height="900" viewBox="0 0 1600 900" role="img" aria-labelledby="svg-title svg-desc">
  <title id="svg-title">德国心脏病四人桌面场景原型</title>
  <desc id="svg-desc">四个玩家围绕中央铃，两个香蕉顶牌合计恰好五个。</desc>
  <style>
    text { font-family: "Microsoft YaHei", "Noto Sans CJK SC", sans-serif; }
    .title { font-size: 34px; font-weight: 800; letter-spacing: 1px; }
    .subtitle { font-size: 16px; font-weight: 500; }
    .corner { font-size: 28px; font-weight: 900; }
    .fruit-label { font-size: 15px; font-weight: 800; }
    .copy { font-size: 10px; font-weight: 700; fill: #554D42; }
    .seat-name { font-size: 20px; font-weight: 800; fill: #FFFDF7; }
    .seat-meta { font-size: 14px; font-weight: 600; fill: #CEDBD5; }
  </style>
  <rect width="1600" height="900" fill="#101817"/><rect id="table_stage" data-zone="table_stage" x="32" y="28" width="1536" height="790" rx="72" fill="#173C36" stroke="#B58A4A" stroke-width="5"/><text x="72" y="78" class="title" fill="#FFFDF7">德国心脏病 · 四人牌桌信息架构</text><text x="73" y="108" class="subtitle" fill="#C9D8D2">所有顶牌同时可见 · 中央铃固定 · 忠实模式不自动计算答案</text>
      <g id="seat_2" data-zone="seat_2" transform="translate(70 175)">
        <rect width="360" height="210" rx="24" fill="#12302C" stroke="#F7D774" stroke-width="4"/>
        <text x="20" y="32" class="seat-name">青禾 · P3</text>
        <text x="340" y="30" text-anchor="end" class="seat-meta">轮到翻牌</text>

      <g transform="translate(18 38)">
        <rect x="8" y="8" width="102" height="158" rx="10" fill="#183B36" stroke="#B58A4A" stroke-width="2"/>
        <rect x="4" y="4" width="102" height="158" rx="10" fill="#214A44" stroke="#B58A4A" stroke-width="2"/>
        <rect width="102" height="158" rx="10" fill="#2B5A52" stroke="#D2B472" stroke-width="2"/>
        <circle cx="51" cy="75" r="29" fill="none" stroke="#D2B472" stroke-width="5"/>
        <path d="M28 77 Q51 43 74 77 Q51 109 28 77 Z" fill="none" stroke="#D2B472" stroke-width="4"/>
        <text x="51" y="138" text-anchor="middle" fill="#FFFDF7" font-size="14" font-weight="800">抽牌 · 11</text>
      </g>


      <g id="face-strawberry-4" transform="translate(183 38) scale(0.61)" role="img" aria-label="四个草莓">
        <title>草莓 ×4</title>

      <rect width="168" height="261" rx="13" fill="#FFFDF7" stroke="#BEB39E" stroke-width="2"/>
      <rect x="8" y="8" width="152" height="245" rx="10" fill="none" stroke="#8F2330" stroke-width="2" opacity="0.42"/>
      <text x="17" y="33" class="corner" fill="#8F2330">4</text>

      <g data-fruit="strawberry" transform="translate(35 84) scale(0.42)">
          <path d="M50 91 C31 78 16 55 20 37 C24 20 42 17 50 28 C58 17 76 20 80 37 C84 55 69 78 50 91 Z" fill="#E9545B" stroke="#8F2330" stroke-width="5"/>
          <path d="M50 28 L33 14 L45 17 L50 5 L55 17 L68 14 Z" fill="#8F2330" stroke="#8F2330" stroke-width="3" stroke-linejoin="round"/>
          <g fill="#FFC0BD"><circle cx="36" cy="43" r="3"/><circle cx="58" cy="40" r="3"/><circle cx="47" cy="57" r="3"/><circle cx="65" cy="59" r="3"/><circle cx="42" cy="73" r="3"/></g>
        </g><g data-fruit="strawberry" transform="translate(91 84) scale(0.42)">
          <path d="M50 91 C31 78 16 55 20 37 C24 20 42 17 50 28 C58 17 76 20 80 37 C84 55 69 78 50 91 Z" fill="#E9545B" stroke="#8F2330" stroke-width="5"/>
          <path d="M50 28 L33 14 L45 17 L50 5 L55 17 L68 14 Z" fill="#8F2330" stroke="#8F2330" stroke-width="3" stroke-linejoin="round"/>
          <g fill="#FFC0BD"><circle cx="36" cy="43" r="3"/><circle cx="58" cy="40" r="3"/><circle cx="47" cy="57" r="3"/><circle cx="65" cy="59" r="3"/><circle cx="42" cy="73" r="3"/></g>
        </g><g data-fruit="strawberry" transform="translate(35 143) scale(0.42)">
          <path d="M50 91 C31 78 16 55 20 37 C24 20 42 17 50 28 C58 17 76 20 80 37 C84 55 69 78 50 91 Z" fill="#E9545B" stroke="#8F2330" stroke-width="5"/>
          <path d="M50 28 L33 14 L45 17 L50 5 L55 17 L68 14 Z" fill="#8F2330" stroke="#8F2330" stroke-width="3" stroke-linejoin="round"/>
          <g fill="#FFC0BD"><circle cx="36" cy="43" r="3"/><circle cx="58" cy="40" r="3"/><circle cx="47" cy="57" r="3"/><circle cx="65" cy="59" r="3"/><circle cx="42" cy="73" r="3"/></g>
        </g><g data-fruit="strawberry" transform="translate(91 143) scale(0.42)">
          <path d="M50 91 C31 78 16 55 20 37 C24 20 42 17 50 28 C58 17 76 20 80 37 C84 55 69 78 50 91 Z" fill="#E9545B" stroke="#8F2330" stroke-width="5"/>
          <path d="M50 28 L33 14 L45 17 L50 5 L55 17 L68 14 Z" fill="#8F2330" stroke="#8F2330" stroke-width="3" stroke-linejoin="round"/>
          <g fill="#FFC0BD"><circle cx="36" cy="43" r="3"/><circle cx="58" cy="40" r="3"/><circle cx="47" cy="57" r="3"/><circle cx="65" cy="59" r="3"/><circle cx="42" cy="73" r="3"/></g>
        </g>
      <rect x="25" y="211" width="118" height="28" rx="14" fill="#8F2330"/>
      <text x="84" y="230" text-anchor="middle" class="fruit-label" fill="#FFFFFF">草莓 ×4</text>

      </g>

      </g>

      <g id="seat_3" data-zone="seat_3" transform="translate(620 105)">
        <rect width="360" height="210" rx="24" fill="#12302C" stroke="#527A70" stroke-width="2"/>
        <text x="20" y="32" class="seat-name">白川 · P2</text>
        <text x="340" y="30" text-anchor="end" class="seat-meta">可翻牌／可抢铃</text>

      <g transform="translate(18 38)">
        <rect x="8" y="8" width="102" height="158" rx="10" fill="#183B36" stroke="#B58A4A" stroke-width="2"/>
        <rect x="4" y="4" width="102" height="158" rx="10" fill="#214A44" stroke="#B58A4A" stroke-width="2"/>
        <rect width="102" height="158" rx="10" fill="#2B5A52" stroke="#D2B472" stroke-width="2"/>
        <circle cx="51" cy="75" r="29" fill="none" stroke="#D2B472" stroke-width="5"/>
        <path d="M28 77 Q51 43 74 77 Q51 109 28 77 Z" fill="none" stroke="#D2B472" stroke-width="4"/>
        <text x="51" y="138" text-anchor="middle" fill="#FFFDF7" font-size="14" font-weight="800">抽牌 · 11</text>
      </g>


      <g id="face-banana-3" transform="translate(183 38) scale(0.61)" role="img" aria-label="三根香蕉">
        <title>香蕉 ×3</title>

      <rect width="168" height="261" rx="13" fill="#FFFDF7" stroke="#BEB39E" stroke-width="2"/>
      <rect x="8" y="8" width="152" height="245" rx="10" fill="none" stroke="#8A6512" stroke-width="2" opacity="0.42"/>
      <text x="17" y="33" class="corner" fill="#8A6512">3</text>

      <g data-fruit="banana" transform="translate(33.5 81.5) scale(0.45)">
          <path d="M17 18 C25 62 56 88 87 56 C70 68 45 57 36 12 Z" fill="#F3C94A" stroke="#8A6512" stroke-width="6" stroke-linejoin="round"/>
          <path d="M35 15 L39 4 L49 8 L43 20" fill="#8A6512"/>
          <path d="M28 35 C40 60 59 68 77 59" fill="none" stroke="#FFF1A8" stroke-width="5" stroke-linecap="round"/>
          <path d="M20 25 L31 30 M26 46 L37 47 M39 65 L49 61" stroke="#8A6512" stroke-width="3" stroke-linecap="round" opacity="0.45"/>
        </g><g data-fruit="banana" transform="translate(89.5 81.5) scale(0.45)">
          <path d="M17 18 C25 62 56 88 87 56 C70 68 45 57 36 12 Z" fill="#F3C94A" stroke="#8A6512" stroke-width="6" stroke-linejoin="round"/>
          <path d="M35 15 L39 4 L49 8 L43 20" fill="#8A6512"/>
          <path d="M28 35 C40 60 59 68 77 59" fill="none" stroke="#FFF1A8" stroke-width="5" stroke-linecap="round"/>
          <path d="M20 25 L31 30 M26 46 L37 47 M39 65 L49 61" stroke="#8A6512" stroke-width="3" stroke-linecap="round" opacity="0.45"/>
        </g><g data-fruit="banana" transform="translate(61.5 142.5) scale(0.45)">
          <path d="M17 18 C25 62 56 88 87 56 C70 68 45 57 36 12 Z" fill="#F3C94A" stroke="#8A6512" stroke-width="6" stroke-linejoin="round"/>
          <path d="M35 15 L39 4 L49 8 L43 20" fill="#8A6512"/>
          <path d="M28 35 C40 60 59 68 77 59" fill="none" stroke="#FFF1A8" stroke-width="5" stroke-linecap="round"/>
          <path d="M20 25 L31 30 M26 46 L37 47 M39 65 L49 61" stroke="#8A6512" stroke-width="3" stroke-linecap="round" opacity="0.45"/>
        </g>
      <rect x="25" y="211" width="118" height="28" rx="14" fill="#8A6512"/>
      <text x="84" y="230" text-anchor="middle" class="fruit-label" fill="#FFFFFF">香蕉 ×3</text>

      </g>

      </g>

      <g id="seat_5" data-zone="seat_5" transform="translate(1170 175)">
        <rect width="360" height="210" rx="24" fill="#12302C" stroke="#527A70" stroke-width="2"/>
        <text x="20" y="32" class="seat-name">赤岩 · P4</text>
        <text x="340" y="30" text-anchor="end" class="seat-meta">可翻牌／可抢铃</text>

      <g transform="translate(18 38)">
        <rect x="8" y="8" width="102" height="158" rx="10" fill="#183B36" stroke="#B58A4A" stroke-width="2"/>
        <rect x="4" y="4" width="102" height="158" rx="10" fill="#214A44" stroke="#B58A4A" stroke-width="2"/>
        <rect width="102" height="158" rx="10" fill="#2B5A52" stroke="#D2B472" stroke-width="2"/>
        <circle cx="51" cy="75" r="29" fill="none" stroke="#D2B472" stroke-width="5"/>
        <path d="M28 77 Q51 43 74 77 Q51 109 28 77 Z" fill="none" stroke="#D2B472" stroke-width="4"/>
        <text x="51" y="138" text-anchor="middle" fill="#FFFDF7" font-size="14" font-weight="800">抽牌 · 11</text>
      </g>


      <g id="face-plum-1" transform="translate(183 38) scale(0.61)" role="img" aria-label="一个李子">
        <title>李子 ×1</title>

      <rect width="168" height="261" rx="13" fill="#FFFDF7" stroke="#BEB39E" stroke-width="2"/>
      <rect x="8" y="8" width="152" height="245" rx="10" fill="none" stroke="#432965" stroke-width="2" opacity="0.42"/>
      <text x="17" y="33" class="corner" fill="#432965">1</text>

      <g data-fruit="plum" transform="translate(46 94) scale(0.76)">
          <ellipse cx="49" cy="57" rx="33" ry="38" fill="#7D5AA6" stroke="#432965" stroke-width="6"/>
          <path d="M50 20 C53 8 61 5 68 4" fill="none" stroke="#432965" stroke-width="5" stroke-linecap="round"/>
          <path d="M62 15 C73 4 90 10 91 24 C78 28 68 24 62 15 Z" fill="#CDB8E8" stroke="#432965" stroke-width="4"/>
          <ellipse cx="37" cy="44" rx="9" ry="15" fill="#CDB8E8" opacity="0.72" transform="rotate(28 37 44)"/>
          <path d="M27 63 C39 76 60 81 73 68" fill="none" stroke="#432965" stroke-width="3" opacity="0.38"/>
        </g>
      <rect x="25" y="211" width="118" height="28" rx="14" fill="#432965"/>
      <text x="84" y="230" text-anchor="middle" class="fruit-label" fill="#FFFFFF">李子 ×1</text>

      </g>

      </g>

      <g id="seat_0" data-zone="seat_0" transform="translate(620 585)">
        <rect width="360" height="210" rx="24" fill="#12302C" stroke="#527A70" stroke-width="2"/>
        <text x="20" y="32" class="seat-name">你 · 阿梨 · P1</text>
        <text x="340" y="30" text-anchor="end" class="seat-meta">可翻牌／可抢铃</text>

      <g transform="translate(18 38)">
        <rect x="8" y="8" width="102" height="158" rx="10" fill="#183B36" stroke="#B58A4A" stroke-width="2"/>
        <rect x="4" y="4" width="102" height="158" rx="10" fill="#214A44" stroke="#B58A4A" stroke-width="2"/>
        <rect width="102" height="158" rx="10" fill="#2B5A52" stroke="#D2B472" stroke-width="2"/>
        <circle cx="51" cy="75" r="29" fill="none" stroke="#D2B472" stroke-width="5"/>
        <path d="M28 77 Q51 43 74 77 Q51 109 28 77 Z" fill="none" stroke="#D2B472" stroke-width="4"/>
        <text x="51" y="138" text-anchor="middle" fill="#FFFDF7" font-size="14" font-weight="800">抽牌 · 11</text>
      </g>


      <g id="face-banana-2" transform="translate(183 38) scale(0.61)" role="img" aria-label="两根香蕉">
        <title>香蕉 ×2</title>

      <rect width="168" height="261" rx="13" fill="#FFFDF7" stroke="#BEB39E" stroke-width="2"/>
      <rect x="8" y="8" width="152" height="245" rx="10" fill="none" stroke="#8A6512" stroke-width="2" opacity="0.42"/>
      <text x="17" y="33" class="corner" fill="#8A6512">2</text>

      <g data-fruit="banana" transform="translate(30 78) scale(0.54)">
          <path d="M17 18 C25 62 56 88 87 56 C70 68 45 57 36 12 Z" fill="#F3C94A" stroke="#8A6512" stroke-width="6" stroke-linejoin="round"/>
          <path d="M35 15 L39 4 L49 8 L43 20" fill="#8A6512"/>
          <path d="M28 35 C40 60 59 68 77 59" fill="none" stroke="#FFF1A8" stroke-width="5" stroke-linecap="round"/>
          <path d="M20 25 L31 30 M26 46 L37 47 M39 65 L49 61" stroke="#8A6512" stroke-width="3" stroke-linecap="round" opacity="0.45"/>
        </g><g data-fruit="banana" transform="translate(84 133) scale(0.54)">
          <path d="M17 18 C25 62 56 88 87 56 C70 68 45 57 36 12 Z" fill="#F3C94A" stroke="#8A6512" stroke-width="6" stroke-linejoin="round"/>
          <path d="M35 15 L39 4 L49 8 L43 20" fill="#8A6512"/>
          <path d="M28 35 C40 60 59 68 77 59" fill="none" stroke="#FFF1A8" stroke-width="5" stroke-linecap="round"/>
          <path d="M20 25 L31 30 M26 46 L37 47 M39 65 L49 61" stroke="#8A6512" stroke-width="3" stroke-linecap="round" opacity="0.45"/>
        </g>
      <rect x="25" y="211" width="118" height="28" rx="14" fill="#8A6512"/>
      <text x="84" y="230" text-anchor="middle" class="fruit-label" fill="#FFFFFF">香蕉 ×2</text>

      </g>

      </g>

        <g id="bell_zone" data-zone="bell_zone" transform="translate(696 344)">
          <circle cx="104" cy="104" r="100" fill="#102823" stroke="#D2B472" stroke-width="5"/>
          <ellipse cx="104" cy="133" rx="74" ry="23" fill="#7B5725"/>
          <path d="M47 128 C50 75 70 48 104 48 C138 48 158 75 161 128 Z" fill="#D6B56B" stroke="#7B5725" stroke-width="6"/>
          <ellipse cx="104" cy="50" rx="26" ry="12" fill="#F3D991" stroke="#7B5725" stroke-width="5"/>
          <rect x="92" y="27" width="24" height="24" rx="8" fill="#D6B56B" stroke="#7B5725" stroke-width="5"/>
          <rect x="29" y="126" width="150" height="22" rx="11" fill="#D6B56B" stroke="#7B5725" stroke-width="5"/>
          <text x="104" y="174" text-anchor="middle" fill="#FFFDF7" font-size="18" font-weight="800">SPACE · 抢铃</text>
        </g>
        <g id="fruit_legend" data-zone="fruit_legend" transform="translate(492 525)"><rect width="616" height="46" rx="23" fill="#0F2B27" stroke="#527A70"/><text x="308" y="29" text-anchor="middle" fill="#DDE8E3" font-size="16" font-weight="700">图例：香蕉弯月 · 草莓籽心 · 青柠分瓣 · 李子椭圆</text></g><g id="reaction_banner" data-zone="reaction_banner" transform="translate(525 294)"><rect width="550" height="45" rx="22" fill="#F7F2E8" stroke="#B58A4A" stroke-width="2"/><text x="275" y="29" text-anchor="middle" fill="#18211F" font-size="17" font-weight="800">教学标注：2 + 3 个香蕉 = 恰好 5 个，可抢铃</text></g><g id="turn_banner" data-zone="turn_banner" transform="translate(602 32)"><rect width="396" height="46" rx="23" fill="#214A44" stroke="#F7D774" stroke-width="2"/><text x="198" y="29" text-anchor="middle" fill="#FFFDF7" font-size="17" font-weight="800">当前：青禾翻牌 · 桌面版本 12</text></g><text x="72" y="858" class="subtitle" fill="#C9D8D2">原创原型 · 牌背不泄露信息 · 被覆盖牌不在实时界面展开 · 非官方美术</text>
</svg>
